<mxfile host="app.diagrams.net" scale="0.8" border="0" agent="Mozilla/5.0 (Macintosh; Intel Mac OS X 10_15_7) AppleWebKit/537.36 (KHTML, like Gecko) Chrome/128.0.0.0 Safari/537.36" version="24.7.14">
  <diagram id="2imF5TS-2AsIUvXl1Hec" name="Page-1">
    <mxGraphModel dx="1673" dy="1037" grid="1" gridSize="10" guides="1" tooltips="1" connect="1" arrows="1" fold="1" page="1" pageScale="1" pageWidth="827" pageHeight="1169" math="0" shadow="0">
      <root>
        <mxCell id="0" />
        <mxCell id="1" parent="0" />
        <mxCell id="2" value="&lt;font style=&quot;font-size: 12px;&quot;&gt;&lt;span style=&quot;background-color: initial; font-size: 12px;&quot;&gt;«BusinessComponent»&lt;br style=&quot;font-size: 12px;&quot;&gt;&lt;/span&gt;&lt;b style=&quot;font-size: 12px;&quot;&gt;ComponentType&lt;/b&gt;&lt;/font&gt;" style="swimlane;fontStyle=0;align=center;verticalAlign=top;childLayout=stackLayout;horizontal=1;startSize=40;horizontalStack=0;resizeParent=1;resizeParentMax=0;resizeLast=0;collapsible=0;marginBottom=0;html=1;fillColor=#e9fea7;shadow=1;fontSize=12;" parent="1" vertex="1">
          <mxGeometry x="305" y="10" width="240" height="120" as="geometry" />
        </mxCell>
        <mxCell id="3" value="+&amp;nbsp; &amp;nbsp; Instance: NameIdentifierType [0..1]&lt;br style=&quot;font-size: 12px;&quot;&gt;+&amp;nbsp; &amp;nbsp; Name: NameIdentifierType" style="text;html=1;strokeColor=none;fillColor=#e9fea7;align=left;verticalAlign=top;spacingLeft=4;spacingRight=4;overflow=hidden;rotatable=0;points=[[0,0.5],[1,0.5]];portConstraint=eastwest;fontSize=12;" parent="2" vertex="1">
          <mxGeometry y="40" width="240" height="80" as="geometry" />
        </mxCell>
        <mxCell id="5" value="&lt;font style=&quot;font-size: 12px;&quot;&gt;&lt;span style=&quot;background-color: initial; font-size: 12px;&quot;&gt;«BusinessComponent»&lt;br style=&quot;font-size: 12px;&quot;&gt;&lt;/span&gt;&lt;b style=&quot;font-size: 12px;&quot;&gt;VariableType&lt;/b&gt;&lt;/font&gt;" style="swimlane;fontStyle=0;align=center;verticalAlign=top;childLayout=stackLayout;horizontal=1;startSize=40;horizontalStack=0;resizeParent=1;resizeParentMax=0;resizeLast=0;collapsible=0;marginBottom=0;html=1;fillColor=#e9fea7;rounded=0;shadow=1;fontSize=12;" parent="1" vertex="1">
          <mxGeometry x="300" y="210" width="250" height="90" as="geometry" />
        </mxCell>
        <mxCell id="6" value="+&amp;nbsp; &amp;nbsp; Instance: NameIdentifierType [0..1]&lt;br style=&quot;font-size: 12px;&quot;&gt;+&amp;nbsp; &amp;nbsp; Name: NameIdentifierType" style="text;html=1;strokeColor=none;fillColor=#e9fea7;align=left;verticalAlign=top;spacingLeft=4;spacingRight=4;overflow=hidden;rotatable=0;points=[[0,0.5],[1,0.5]];portConstraint=eastwest;fontSize=12;" parent="5" vertex="1">
          <mxGeometry y="40" width="250" height="50" as="geometry" />
        </mxCell>
        <mxCell id="12" value="&lt;font style=&quot;font-size: 12px;&quot;&gt;&lt;span style=&quot;background-color: initial; font-size: 12px;&quot;&gt;«BusinessComponent»&lt;br style=&quot;font-size: 12px;&quot;&gt;&lt;/span&gt;&lt;b style=&quot;font-size: 12px;&quot;&gt;EVSEType&lt;/b&gt;&lt;/font&gt;" style="swimlane;fontStyle=0;align=center;verticalAlign=top;childLayout=stackLayout;horizontal=1;startSize=40;horizontalStack=0;resizeParent=1;resizeParentMax=0;resizeLast=0;collapsible=0;marginBottom=0;html=1;fillColor=#e9fea7;shadow=1;fontSize=12;" parent="1" vertex="1">
          <mxGeometry x="628" y="10" width="300" height="120" as="geometry" />
        </mxCell>
        <mxCell id="13" value="+&amp;nbsp; &amp;nbsp; ConnectorId: NumericIdentifierType [0..1]&lt;br style=&quot;font-size: 12px;&quot;&gt;&lt;span style=&quot;text-align: center; font-size: 12px;&quot;&gt;&amp;nbsp; &amp;nbsp;«Content»&lt;/span&gt;&lt;br style=&quot;font-size: 12px;&quot;&gt;+&amp;nbsp; &amp;nbsp; MRID: NumericIdentifierType" style="text;html=1;strokeColor=none;fillColor=#e9fea7;align=left;verticalAlign=top;spacingLeft=4;spacingRight=4;overflow=hidden;rotatable=0;points=[[0,0.5],[1,0.5]];portConstraint=eastwest;fontSize=12;" parent="12" vertex="1">
          <mxGeometry y="40" width="300" height="80" as="geometry" />
        </mxCell>
        <mxCell id="7" style="edgeStyle=none;html=1;fontFamily=Helvetica;fontSize=12;endArrow=openThin;endFill=0;endSize=10;" parent="1" source="5" target="3" edge="1">
          <mxGeometry relative="1" as="geometry" />
        </mxCell>
        <mxCell id="20" value="1" style="edgeLabel;html=1;align=center;verticalAlign=middle;resizable=0;points=[];fontSize=12;" parent="7" vertex="1" connectable="0">
          <mxGeometry x="0.725" relative="1" as="geometry">
            <mxPoint x="6" as="offset" />
          </mxGeometry>
        </mxCell>
        <mxCell id="21" value="*" style="edgeLabel;html=1;align=center;verticalAlign=middle;resizable=0;points=[];fontSize=12;" parent="7" vertex="1" connectable="0">
          <mxGeometry x="-0.705" y="-1" relative="1" as="geometry">
            <mxPoint x="6" y="2" as="offset" />
          </mxGeometry>
        </mxCell>
        <mxCell id="17" style="edgeStyle=none;html=1;entryX=0;entryY=0.5;entryDx=0;entryDy=0;fontFamily=Helvetica;fontSize=12;endArrow=none;endFill=0;endSize=10;" parent="1" source="2" target="12" edge="1">
          <mxGeometry relative="1" as="geometry" />
        </mxCell>
        <mxCell id="22" value="0" style="edgeLabel;html=1;align=center;verticalAlign=middle;resizable=0;points=[];fontSize=12;" parent="17" vertex="1" connectable="0">
          <mxGeometry x="-0.8743" y="2" relative="1" as="geometry">
            <mxPoint y="9" as="offset" />
          </mxGeometry>
        </mxCell>
        <mxCell id="23" value="1" style="edgeLabel;html=1;align=center;verticalAlign=middle;resizable=0;points=[];fontSize=12;" parent="17" vertex="1" connectable="0">
          <mxGeometry x="0.84" relative="1" as="geometry">
            <mxPoint y="7" as="offset" />
          </mxGeometry>
        </mxCell>
        <mxCell id="27" style="edgeStyle=none;html=1;entryX=0.253;entryY=1.049;entryDx=0;entryDy=0;exitX=0.75;exitY=0;exitDx=0;exitDy=0;entryPerimeter=0;endArrow=none;endFill=0;" parent="1" source="24" target="6" edge="1">
          <mxGeometry relative="1" as="geometry" />
        </mxCell>
        <mxCell id="28" value="1..*" style="edgeLabel;html=1;align=center;verticalAlign=middle;resizable=0;points=[];" parent="27" vertex="1" connectable="0">
          <mxGeometry x="-0.8293" y="1" relative="1" as="geometry">
            <mxPoint x="6" y="-1" as="offset" />
          </mxGeometry>
        </mxCell>
        <mxCell id="29" value="1" style="edgeLabel;html=1;align=center;verticalAlign=middle;resizable=0;points=[];fontStyle=1" parent="27" vertex="1" connectable="0">
          <mxGeometry x="0.8284" y="-1" relative="1" as="geometry">
            <mxPoint x="9" y="1" as="offset" />
          </mxGeometry>
        </mxCell>
        <mxCell id="24" value="&lt;font style=&quot;font-size: 12px;&quot;&gt;&lt;span style=&quot;background-color: initial; font-size: 12px;&quot;&gt;«BusinessComponent»&lt;br style=&quot;font-size: 12px;&quot;&gt;&lt;/span&gt;&lt;b style=&quot;font-size: 12px;&quot;&gt;VariableAttributeType&lt;/b&gt;&lt;/font&gt;" style="swimlane;fontStyle=0;align=center;verticalAlign=top;childLayout=stackLayout;horizontal=1;startSize=40;horizontalStack=0;resizeParent=1;resizeParentMax=0;resizeLast=0;collapsible=0;marginBottom=0;html=1;fillColor=#e9fea7;rounded=0;shadow=1;fontSize=12;" parent="1" vertex="1">
          <mxGeometry x="7" y="390" width="250" height="140" as="geometry" />
        </mxCell>
        <mxCell id="25" value="+&amp;nbsp; &amp;nbsp; Constant: IndicatorType&lt;br style=&quot;font-size: 12px;&quot;&gt;+&amp;nbsp; &amp;nbsp; Mutability: MutabilityEnumType [0..1]&lt;br&gt;+&amp;nbsp; &amp;nbsp; Persistent: IndicatorType&lt;br&gt;+&amp;nbsp; &amp;nbsp; Type: AttributeEnumType [0..1]&lt;br&gt;+&amp;nbsp; &amp;nbsp; Value: Base64String2500Type" style="text;html=1;strokeColor=none;fillColor=#e9fea7;align=left;verticalAlign=top;spacingLeft=4;spacingRight=4;overflow=hidden;rotatable=0;points=[[0,0.5],[1,0.5]];portConstraint=eastwest;fontSize=12;" parent="24" vertex="1">
          <mxGeometry y="40" width="250" height="100" as="geometry" />
        </mxCell>
        <mxCell id="32" style="edgeStyle=none;html=1;exitX=0.5;exitY=0;exitDx=0;exitDy=0;endArrow=openThin;endFill=0;endSize=10;entryX=0.5;entryY=1;entryDx=0;entryDy=0;" parent="1" source="30" target="5" edge="1">
          <mxGeometry relative="1" as="geometry">
            <mxPoint x="375" y="302" as="targetPoint" />
          </mxGeometry>
        </mxCell>
        <mxCell id="33" value="0..1" style="edgeLabel;html=1;align=center;verticalAlign=middle;resizable=0;points=[];" parent="32" vertex="1" connectable="0">
          <mxGeometry x="-0.7793" y="-1" relative="1" as="geometry">
            <mxPoint x="19" as="offset" />
          </mxGeometry>
        </mxCell>
        <mxCell id="34" value="1" style="edgeLabel;html=1;align=center;verticalAlign=middle;resizable=0;points=[];" parent="32" vertex="1" connectable="0">
          <mxGeometry x="0.8427" y="1" relative="1" as="geometry">
            <mxPoint x="13" as="offset" />
          </mxGeometry>
        </mxCell>
        <mxCell id="30" value="&lt;font style=&quot;font-size: 12px;&quot;&gt;&lt;span style=&quot;background-color: initial; font-size: 12px;&quot;&gt;«BusinessComponent»&lt;br style=&quot;font-size: 12px;&quot;&gt;&lt;/span&gt;&lt;b style=&quot;font-size: 12px;&quot;&gt;VariableCharacteristicsType&lt;/b&gt;&lt;/font&gt;" style="swimlane;fontStyle=0;align=center;verticalAlign=top;childLayout=stackLayout;horizontal=1;startSize=40;horizontalStack=0;resizeParent=1;resizeParentMax=0;resizeLast=0;collapsible=0;marginBottom=0;html=1;fillColor=#e9fea7;rounded=0;shadow=1;fontSize=12;" parent="1" vertex="1">
          <mxGeometry x="300" y="390" width="250" height="140" as="geometry" />
        </mxCell>
        <mxCell id="31" value="+&amp;nbsp; &amp;nbsp; DataType: DataEnumType&lt;br&gt;+&amp;nbsp; &amp;nbsp; MaxLimit: AmountType [0..1]&lt;br&gt;+&amp;nbsp; &amp;nbsp; MinLimit: AmountType [0..1]&lt;br&gt;+&amp;nbsp; &amp;nbsp; SupportsMonitoring: IndicatorType&lt;br&gt;+&amp;nbsp; &amp;nbsp; Unit: MeasurementUnitType: [0..1]&lt;br&gt;+&amp;nbsp; &amp;nbsp; ValuesList: CI1000TextType [0..1]" style="text;html=1;strokeColor=none;fillColor=#e9fea7;align=left;verticalAlign=top;spacingLeft=4;spacingRight=4;overflow=hidden;rotatable=0;points=[[0,0.5],[1,0.5]];portConstraint=eastwest;fontSize=12;" parent="30" vertex="1">
          <mxGeometry y="40" width="250" height="100" as="geometry" />
        </mxCell>
        <mxCell id="37" style="edgeStyle=none;html=1;entryX=0.75;entryY=1;entryDx=0;entryDy=0;endArrow=openThin;endFill=0;strokeWidth=1;endSize=10;exitX=0.25;exitY=0;exitDx=0;exitDy=0;" parent="1" source="35" target="5" edge="1">
          <mxGeometry relative="1" as="geometry" />
        </mxCell>
        <mxCell id="38" value="1" style="edgeLabel;html=1;align=center;verticalAlign=middle;resizable=0;points=[];" parent="37" vertex="1" connectable="0">
          <mxGeometry x="0.8425" y="1" relative="1" as="geometry">
            <mxPoint x="1" y="6" as="offset" />
          </mxGeometry>
        </mxCell>
        <mxCell id="39" value="*" style="edgeLabel;html=1;align=center;verticalAlign=middle;resizable=0;points=[];" parent="37" vertex="1" connectable="0">
          <mxGeometry x="-0.8331" y="-1" relative="1" as="geometry">
            <mxPoint x="8" y="-2" as="offset" />
          </mxGeometry>
        </mxCell>
        <mxCell id="35" value="&lt;font style=&quot;font-size: 12px;&quot;&gt;&lt;span style=&quot;background-color: initial; font-size: 12px;&quot;&gt;«BusinessComponent»&lt;br style=&quot;font-size: 12px;&quot;&gt;&lt;/span&gt;&lt;b style=&quot;font-size: 12px;&quot;&gt;VariableMonitoringType&lt;/b&gt;&lt;/font&gt;" style="swimlane;fontStyle=0;align=center;verticalAlign=top;childLayout=stackLayout;horizontal=1;startSize=40;horizontalStack=0;resizeParent=1;resizeParentMax=0;resizeLast=0;collapsible=0;marginBottom=0;html=1;fillColor=#e9fea7;rounded=0;shadow=1;fontSize=12;" parent="1" vertex="1">
          <mxGeometry x="590" y="390" width="250" height="130" as="geometry" />
        </mxCell>
        <mxCell id="36" value="+&amp;nbsp; &amp;nbsp; Id: NumericIdentifierType&lt;br&gt;+&amp;nbsp; &amp;nbsp; Severity: NumericIdentifierType&lt;br&gt;+&amp;nbsp; &amp;nbsp; Transaction: IndicatorType&lt;br&gt;+&amp;nbsp; &amp;nbsp; Type: MonitorEnumType&lt;br&gt;+&amp;nbsp; &amp;nbsp; Value: MeasureType" style="text;html=1;strokeColor=none;fillColor=#e9fea7;align=left;verticalAlign=top;spacingLeft=4;spacingRight=4;overflow=hidden;rotatable=0;points=[[0,0.5],[1,0.5]];portConstraint=eastwest;fontSize=12;" parent="35" vertex="1">
          <mxGeometry y="40" width="250" height="90" as="geometry" />
        </mxCell>
      </root>
    </mxGraphModel>
  </diagram>
</mxfile>
